<?xml version="1.0" encoding="utf-8"?>
<!-- Generator: Adobe Illustrator 21.1.0, SVG Export Plug-In . SVG Version: 6.00 Build 0)  -->
<svg version="1.1" id="Layer_1" xmlns="http://www.w3.org/2000/svg" xmlns:xlink="http://www.w3.org/1999/xlink" x="0px" y="0px"
	 viewBox="0 0 50 50" style="enable-background:new 0 0 50 50;" xml:space="preserve">
<g>
	<path d="M6.8,30.7V19.3h1.7v9.8H14v1.6H6.8z"/>
	<path d="M23.2,29.3c-0.8,1-1.8,1.4-3.2,1.4h-4V19.3h4c1.4,0,2.4,0.4,3.2,1.4c0.8,1,0.9,2.4,0.9,4.3C24.1,26.8,24,28.2,23.2,29.3z
		 M21.7,21.6c-0.5-0.6-1.1-0.8-2-0.8h-2.1v8.3h2.1c0.8,0,1.5-0.2,2-0.8c0.6-0.6,0.6-1.7,0.6-3.4C22.3,23.3,22.3,22.2,21.7,21.6z"/>
	<path d="M33,30.7l-0.8-2.3h-4.5l-0.8,2.3h-1.8l4.2-11.4h1.4l4.2,11.4H33z M30,21.9l-1.8,5.1h3.5L30,21.9z"/>
	<path d="M40.8,26.2h-2.6v4.5h-1.7V19.3h4.3c2.2,0,3.6,1.5,3.6,3.5C44.4,24.7,43,26.2,40.8,26.2z M40.7,20.9h-2.5v3.8h2.5
		c1.2,0,2-0.7,2-1.9C42.7,21.5,41.9,20.9,40.7,20.9z"/>
</g>
</svg>
